<?xml version="1.0" encoding="us-ascii" standalone="no"?><svg xmlns="http://www.w3.org/2000/svg" xmlns:xlink="http://www.w3.org/1999/xlink" contentStyleType="text/css" height="762px" preserveAspectRatio="none" style="width:1248px;height:762px;background:#FFFFFF;" version="1.1" viewBox="0 0 1248 762" width="1248px" zoomAndPan="magnify"><defs/><g><!--class Controller--><g id="elem_Controller"><rect codeLine="42" fill="#FFFFFF" height="108.6426" id="Controller" rx="2.5" ry="2.5" style="stroke:#000000;stroke-width:1.0;" width="252" x="308" y="12"/><ellipse cx="392.75" cy="32.7993" fill="#FFFFFF" rx="9" ry="9" style="stroke:#000000;stroke-width:1.0;"/><path d="M394.9375,34.5649 L390.7969,34.5649 L390.375,35.5962 L390.7969,35.5962 Q391.4063,35.5962 391.6719,35.8306 Q391.9375,36.0649 391.9375,36.4556 Q391.9375,36.8306 391.6719,37.0649 Q391.4063,37.2993 390.7969,37.2993 L388.5,37.2993 Q387.8906,37.2993 387.6406,37.0649 Q387.375,36.8306 387.375,36.4399 Q387.375,36.0649 387.6563,35.8306 Q387.9219,35.5806 388.5469,35.5962 L391.2188,28.9399 L390.1094,28.9399 Q389.5,28.9399 389.2344,28.7056 Q388.9688,28.4712 388.9688,28.0806 Q388.9688,27.7056 389.2344,27.4712 Q389.5,27.2368 390.1094,27.2368 L393.7813,27.2368 L397.1719,35.5962 Q397.7656,35.5962 397.9531,35.7368 Q398.3438,36.0024 398.3438,36.4556 Q398.3438,36.8306 398.0781,37.0649 Q397.8281,37.2993 397.2188,37.2993 L394.9219,37.2993 Q394.3125,37.2993 394.0469,37.0649 Q393.7813,36.8306 393.7813,36.4399 Q393.7813,36.0649 394.0469,35.8306 Q394.3125,35.5962 394.9219,35.5962 L395.3438,35.5962 L394.9375,34.5649 Z M394.2188,32.8618 L392.8594,29.4868 L391.4844,32.8618 L394.2188,32.8618 Z " fill="#000000"/><text fill="#000000" font-family="Verdana" font-size="12" font-style="italic" lengthAdjust="spacing" textLength="79" x="408.25" y="29.0645">&#171;controllers&#187;</text><text fill="#000000" font-family="Verdana" font-size="14" font-style="italic" lengthAdjust="spacing" textLength="71" x="412.25" y="45.6592">Controller</text><line style="stroke:#000000;stroke-width:1.0;" x1="309" x2="559" y1="53.5986" y2="53.5986"/><text fill="#000000" font-family="Verdana" font-size="14" lengthAdjust="spacing" textLength="146" x="314" y="71.6738">#view: HTMLElement</text><line style="stroke:#000000;stroke-width:1.0;" x1="309" x2="559" y1="78.6133" y2="78.6133"/><text fill="#000000" font-family="Verdana" font-size="14" lengthAdjust="spacing" textLength="240" x="314" y="96.6885">#constructor(view: HTMLElement)</text><text fill="#000000" font-family="Verdana" font-size="14" font-style="italic" lengthAdjust="spacing" textLength="235" x="314" y="113.7031">#render(): void | Promise&lt;void&gt;</text></g><!--class HomeController--><g id="elem_HomeController"><rect codeLine="49" fill="#FFFFFF" height="74.6133" id="HomeController" rx="2.5" ry="2.5" style="stroke:#000000;stroke-width:1.0;" width="252" x="12" y="189.5"/><ellipse cx="79.75" cy="210.2993" fill="#FFFFFF" rx="9" ry="9" style="stroke:#000000;stroke-width:1.0;"/><path d="M82.5156,206.1743 Q82.6719,205.9556 82.8594,205.8462 Q83.0469,205.7368 83.2656,205.7368 Q83.6406,205.7368 83.875,206.0024 Q84.1094,206.2524 84.1094,206.8618 L84.1094,208.3149 Q84.1094,208.9243 83.875,209.1899 Q83.6406,209.4556 83.2656,209.4556 Q82.9219,209.4556 82.7188,209.2524 Q82.5156,209.0649 82.4063,208.5493 Q82.3594,208.1899 82.1719,208.0024 Q81.8438,207.6274 81.2344,207.4087 Q80.625,207.1899 80,207.1899 Q79.2344,207.1899 78.5938,207.5181 Q77.9688,207.8462 77.4688,208.5962 Q76.9844,209.3462 76.9844,210.3774 L76.9844,211.4712 Q76.9844,212.7056 77.875,213.5337 Q78.7656,214.3462 80.3594,214.3462 Q81.2969,214.3462 81.9531,214.0962 Q82.3438,213.9399 82.7656,213.5024 Q83.0313,213.2368 83.1719,213.1587 Q83.3281,213.0806 83.5313,213.0806 Q83.8594,213.0806 84.1094,213.3462 Q84.375,213.5962 84.375,213.9399 Q84.375,214.2837 84.0313,214.6899 Q83.5313,215.2681 82.7344,215.5962 Q81.6563,216.0493 80.3594,216.0493 Q78.8438,216.0493 77.6406,215.4243 Q76.6563,214.9243 75.9688,213.8618 Q75.2813,212.7837 75.2813,211.5024 L75.2813,210.3462 Q75.2813,209.0181 75.8906,207.8774 Q76.5156,206.7212 77.6094,206.1118 Q78.7031,205.4868 79.9375,205.4868 Q80.6719,205.4868 81.3125,205.6587 Q81.9688,205.8149 82.5156,206.1743 Z " fill="#000000"/><text fill="#000000" font-family="Verdana" font-size="12" font-style="italic" lengthAdjust="spacing" textLength="79" x="112.25" y="206.5645">&#171;controllers&#187;</text><text fill="#000000" font-family="Verdana" font-size="14" lengthAdjust="spacing" textLength="109" x="97.25" y="223.1592">HomeController</text><line style="stroke:#000000;stroke-width:1.0;" x1="13" x2="263" y1="231.0986" y2="231.0986"/><line style="stroke:#000000;stroke-width:1.0;" x1="13" x2="263" y1="239.0986" y2="239.0986"/><text fill="#000000" font-family="Verdana" font-size="14" lengthAdjust="spacing" textLength="240" x="18" y="257.1738">+constructor(view: HTMLElement)</text></g><!--class LoginController--><g id="elem_LoginController"><rect codeLine="53" fill="#FFFFFF" height="91.6279" id="LoginController" rx="2.5" ry="2.5" style="stroke:#000000;stroke-width:1.0;" width="280" x="586" y="181"/><ellipse cx="668.75" cy="201.7993" fill="#FFFFFF" rx="9" ry="9" style="stroke:#000000;stroke-width:1.0;"/><path d="M671.5156,197.6743 Q671.6719,197.4556 671.8594,197.3462 Q672.0469,197.2368 672.2656,197.2368 Q672.6406,197.2368 672.875,197.5024 Q673.1094,197.7524 673.1094,198.3618 L673.1094,199.8149 Q673.1094,200.4243 672.875,200.6899 Q672.6406,200.9556 672.2656,200.9556 Q671.9219,200.9556 671.7188,200.7524 Q671.5156,200.5649 671.4063,200.0493 Q671.3594,199.6899 671.1719,199.5024 Q670.8438,199.1274 670.2344,198.9087 Q669.625,198.6899 669,198.6899 Q668.2344,198.6899 667.5938,199.0181 Q666.9688,199.3462 666.4688,200.0962 Q665.9844,200.8462 665.9844,201.8774 L665.9844,202.9712 Q665.9844,204.2056 666.875,205.0337 Q667.7656,205.8462 669.3594,205.8462 Q670.2969,205.8462 670.9531,205.5962 Q671.3438,205.4399 671.7656,205.0024 Q672.0313,204.7368 672.1719,204.6587 Q672.3281,204.5806 672.5313,204.5806 Q672.8594,204.5806 673.1094,204.8462 Q673.375,205.0962 673.375,205.4399 Q673.375,205.7837 673.0313,206.1899 Q672.5313,206.7681 671.7344,207.0962 Q670.6563,207.5493 669.3594,207.5493 Q667.8438,207.5493 666.6406,206.9243 Q665.6563,206.4243 664.9688,205.3618 Q664.2813,204.2837 664.2813,203.0024 L664.2813,201.8462 Q664.2813,200.5181 664.8906,199.3774 Q665.5156,198.2212 666.6094,197.6118 Q667.7031,196.9868 668.9375,196.9868 Q669.6719,196.9868 670.3125,197.1587 Q670.9688,197.3149 671.5156,197.6743 Z " fill="#000000"/><text fill="#000000" font-family="Verdana" font-size="12" font-style="italic" lengthAdjust="spacing" textLength="79" x="700.25" y="198.0645">&#171;controllers&#187;</text><text fill="#000000" font-family="Verdana" font-size="14" lengthAdjust="spacing" textLength="107" x="686.25" y="214.6592">LoginController</text><line style="stroke:#000000;stroke-width:1.0;" x1="587" x2="865" y1="222.5986" y2="222.5986"/><line style="stroke:#000000;stroke-width:1.0;" x1="587" x2="865" y1="230.5986" y2="230.5986"/><text fill="#000000" font-family="Verdana" font-size="14" lengthAdjust="spacing" textLength="240" x="592" y="248.6738">+constructor(view: HTMLElement)</text><text fill="#000000" font-family="Verdana" font-size="14" lengthAdjust="spacing" textLength="268" x="592" y="265.6885">-async onClickLogin(): Promise&lt;void&gt;</text></g><!--class RegisterController--><g id="elem_RegisterController"><rect codeLine="58" fill="#FFFFFF" height="91.6279" id="RegisterController" rx="2.5" ry="2.5" style="stroke:#000000;stroke-width:1.0;" width="300" x="901" y="181"/><ellipse cx="983.75" cy="201.7993" fill="#FFFFFF" rx="9" ry="9" style="stroke:#000000;stroke-width:1.0;"/><path d="M986.5156,197.6743 Q986.6719,197.4556 986.8594,197.3462 Q987.0469,197.2368 987.2656,197.2368 Q987.6406,197.2368 987.875,197.5024 Q988.1094,197.7524 988.1094,198.3618 L988.1094,199.8149 Q988.1094,200.4243 987.875,200.6899 Q987.6406,200.9556 987.2656,200.9556 Q986.9219,200.9556 986.7188,200.7524 Q986.5156,200.5649 986.4063,200.0493 Q986.3594,199.6899 986.1719,199.5024 Q985.8438,199.1274 985.2344,198.9087 Q984.625,198.6899 984,198.6899 Q983.2344,198.6899 982.5938,199.0181 Q981.9688,199.3462 981.4688,200.0962 Q980.9844,200.8462 980.9844,201.8774 L980.9844,202.9712 Q980.9844,204.2056 981.875,205.0337 Q982.7656,205.8462 984.3594,205.8462 Q985.2969,205.8462 985.9531,205.5962 Q986.3438,205.4399 986.7656,205.0024 Q987.0313,204.7368 987.1719,204.6587 Q987.3281,204.5806 987.5313,204.5806 Q987.8594,204.5806 988.1094,204.8462 Q988.375,205.0962 988.375,205.4399 Q988.375,205.7837 988.0313,206.1899 Q987.5313,206.7681 986.7344,207.0962 Q985.6563,207.5493 984.3594,207.5493 Q982.8438,207.5493 981.6406,206.9243 Q980.6563,206.4243 979.9688,205.3618 Q979.2813,204.2837 979.2813,203.0024 L979.2813,201.8462 Q979.2813,200.5181 979.8906,199.3774 Q980.5156,198.2212 981.6094,197.6118 Q982.7031,196.9868 983.9375,196.9868 Q984.6719,196.9868 985.3125,197.1587 Q985.9688,197.3149 986.5156,197.6743 Z " fill="#000000"/><text fill="#000000" font-family="Verdana" font-size="12" font-style="italic" lengthAdjust="spacing" textLength="79" x="1025.25" y="198.0645">&#171;controllers&#187;</text><text fill="#000000" font-family="Verdana" font-size="14" lengthAdjust="spacing" textLength="127" x="1001.25" y="214.6592">RegisterController</text><line style="stroke:#000000;stroke-width:1.0;" x1="902" x2="1200" y1="222.5986" y2="222.5986"/><line style="stroke:#000000;stroke-width:1.0;" x1="902" x2="1200" y1="230.5986" y2="230.5986"/><text fill="#000000" font-family="Verdana" font-size="14" lengthAdjust="spacing" textLength="240" x="907" y="248.6738">+constructor(view: HTMLElement)</text><text fill="#000000" font-family="Verdana" font-size="14" lengthAdjust="spacing" textLength="288" x="907" y="265.6885">-async onClickRegister(): Promise&lt;void&gt;</text></g><!--class NavController--><g id="elem_NavController"><rect codeLine="63" fill="#FFFFFF" height="74.6133" id="NavController" rx="2.5" ry="2.5" style="stroke:#000000;stroke-width:1.0;" width="252" x="299" y="189.5"/><ellipse cx="373.75" cy="210.2993" fill="#FFFFFF" rx="9" ry="9" style="stroke:#000000;stroke-width:1.0;"/><path d="M376.5156,206.1743 Q376.6719,205.9556 376.8594,205.8462 Q377.0469,205.7368 377.2656,205.7368 Q377.6406,205.7368 377.875,206.0024 Q378.1094,206.2524 378.1094,206.8618 L378.1094,208.3149 Q378.1094,208.9243 377.875,209.1899 Q377.6406,209.4556 377.2656,209.4556 Q376.9219,209.4556 376.7188,209.2524 Q376.5156,209.0649 376.4063,208.5493 Q376.3594,208.1899 376.1719,208.0024 Q375.8438,207.6274 375.2344,207.4087 Q374.625,207.1899 374,207.1899 Q373.2344,207.1899 372.5938,207.5181 Q371.9688,207.8462 371.4688,208.5962 Q370.9844,209.3462 370.9844,210.3774 L370.9844,211.4712 Q370.9844,212.7056 371.875,213.5337 Q372.7656,214.3462 374.3594,214.3462 Q375.2969,214.3462 375.9531,214.0962 Q376.3438,213.9399 376.7656,213.5024 Q377.0313,213.2368 377.1719,213.1587 Q377.3281,213.0806 377.5313,213.0806 Q377.8594,213.0806 378.1094,213.3462 Q378.375,213.5962 378.375,213.9399 Q378.375,214.2837 378.0313,214.6899 Q377.5313,215.2681 376.7344,215.5962 Q375.6563,216.0493 374.3594,216.0493 Q372.8438,216.0493 371.6406,215.4243 Q370.6563,214.9243 369.9688,213.8618 Q369.2813,212.7837 369.2813,211.5024 L369.2813,210.3462 Q369.2813,209.0181 369.8906,207.8774 Q370.5156,206.7212 371.6094,206.1118 Q372.7031,205.4868 373.9375,205.4868 Q374.6719,205.4868 375.3125,205.6587 Q375.9688,205.8149 376.5156,206.1743 Z " fill="#000000"/><text fill="#000000" font-family="Verdana" font-size="12" font-style="italic" lengthAdjust="spacing" textLength="79" x="399.25" y="206.5645">&#171;controllers&#187;</text><text fill="#000000" font-family="Verdana" font-size="14" lengthAdjust="spacing" textLength="95" x="391.25" y="223.1592">NavController</text><line style="stroke:#000000;stroke-width:1.0;" x1="300" x2="550" y1="231.0986" y2="231.0986"/><line style="stroke:#000000;stroke-width:1.0;" x1="300" x2="550" y1="239.0986" y2="239.0986"/><text fill="#000000" font-family="Verdana" font-size="14" lengthAdjust="spacing" textLength="240" x="305" y="257.1738">+constructor(view: HTMLElement)</text></g><!--class index--><g id="elem_index"><rect codeLine="67" fill="#FFFFFF" height="74.6133" id="index" rx="2.5" ry="2.5" style="stroke:#000000;stroke-width:1.0;" width="209" x="53.5" y="29"/><ellipse cx="131.25" cy="49.7993" fill="#FFFFFF" rx="9" ry="9" style="stroke:#000000;stroke-width:1.0;"/><path d="M134.0156,45.6743 Q134.1719,45.4556 134.3594,45.3462 Q134.5469,45.2368 134.7656,45.2368 Q135.1406,45.2368 135.375,45.5024 Q135.6094,45.7524 135.6094,46.3618 L135.6094,47.8149 Q135.6094,48.4243 135.375,48.6899 Q135.1406,48.9556 134.7656,48.9556 Q134.4219,48.9556 134.2188,48.7524 Q134.0156,48.5649 133.9063,48.0493 Q133.8594,47.6899 133.6719,47.5024 Q133.3438,47.1274 132.7344,46.9087 Q132.125,46.6899 131.5,46.6899 Q130.7344,46.6899 130.0938,47.0181 Q129.4688,47.3462 128.9688,48.0962 Q128.4844,48.8462 128.4844,49.8774 L128.4844,50.9712 Q128.4844,52.2056 129.375,53.0337 Q130.2656,53.8462 131.8594,53.8462 Q132.7969,53.8462 133.4531,53.5962 Q133.8438,53.4399 134.2656,53.0024 Q134.5313,52.7368 134.6719,52.6587 Q134.8281,52.5806 135.0313,52.5806 Q135.3594,52.5806 135.6094,52.8462 Q135.875,53.0962 135.875,53.4399 Q135.875,53.7837 135.5313,54.1899 Q135.0313,54.7681 134.2344,55.0962 Q133.1563,55.5493 131.8594,55.5493 Q130.3438,55.5493 129.1406,54.9243 Q128.1563,54.4243 127.4688,53.3618 Q126.7813,52.2837 126.7813,51.0024 L126.7813,49.8462 Q126.7813,48.5181 127.3906,47.3774 Q128.0156,46.2212 129.1094,45.6118 Q130.2031,44.9868 131.4375,44.9868 Q132.1719,44.9868 132.8125,45.1587 Q133.4688,45.3149 134.0156,45.6743 Z " fill="#000000"/><text fill="#000000" font-family="Verdana" font-size="12" font-style="italic" lengthAdjust="spacing" textLength="50" x="146.75" y="46.0645">&#171;views&#187;</text><text fill="#000000" font-family="Verdana" font-size="14" lengthAdjust="spacing" textLength="38" x="152.75" y="62.6592">index</text><line style="stroke:#000000;stroke-width:1.0;" x1="54.5" x2="261.5" y1="70.5986" y2="70.5986"/><text fill="#000000" font-family="Verdana" font-size="14" lengthAdjust="spacing" textLength="197" x="59.5" y="88.6738">&#171;Referenced by index.html&#187;</text><line style="stroke:#000000;stroke-width:1.0;" x1="54.5" x2="261.5" y1="95.6133" y2="95.6133"/></g><!--class login--><g id="elem_login"><rect codeLine="71" fill="#FFFFFF" height="74.6133" id="login" rx="2.5" ry="2.5" style="stroke:#000000;stroke-width:1.0;" width="204" x="614" y="29"/><ellipse cx="689.25" cy="49.7993" fill="#FFFFFF" rx="9" ry="9" style="stroke:#000000;stroke-width:1.0;"/><path d="M692.0156,45.6743 Q692.1719,45.4556 692.3594,45.3462 Q692.5469,45.2368 692.7656,45.2368 Q693.1406,45.2368 693.375,45.5024 Q693.6094,45.7524 693.6094,46.3618 L693.6094,47.8149 Q693.6094,48.4243 693.375,48.6899 Q693.1406,48.9556 692.7656,48.9556 Q692.4219,48.9556 692.2188,48.7524 Q692.0156,48.5649 691.9063,48.0493 Q691.8594,47.6899 691.6719,47.5024 Q691.3438,47.1274 690.7344,46.9087 Q690.125,46.6899 689.5,46.6899 Q688.7344,46.6899 688.0938,47.0181 Q687.4688,47.3462 686.9688,48.0962 Q686.4844,48.8462 686.4844,49.8774 L686.4844,50.9712 Q686.4844,52.2056 687.375,53.0337 Q688.2656,53.8462 689.8594,53.8462 Q690.7969,53.8462 691.4531,53.5962 Q691.8438,53.4399 692.2656,53.0024 Q692.5313,52.7368 692.6719,52.6587 Q692.8281,52.5806 693.0313,52.5806 Q693.3594,52.5806 693.6094,52.8462 Q693.875,53.0962 693.875,53.4399 Q693.875,53.7837 693.5313,54.1899 Q693.0313,54.7681 692.2344,55.0962 Q691.1563,55.5493 689.8594,55.5493 Q688.3438,55.5493 687.1406,54.9243 Q686.1563,54.4243 685.4688,53.3618 Q684.7813,52.2837 684.7813,51.0024 L684.7813,49.8462 Q684.7813,48.5181 685.3906,47.3774 Q686.0156,46.2212 687.1094,45.6118 Q688.2031,44.9868 689.4375,44.9868 Q690.1719,44.9868 690.8125,45.1587 Q691.4688,45.3149 692.0156,45.6743 Z " fill="#000000"/><text fill="#000000" font-family="Verdana" font-size="12" font-style="italic" lengthAdjust="spacing" textLength="50" x="704.75" y="46.0645">&#171;views&#187;</text><text fill="#000000" font-family="Verdana" font-size="14" lengthAdjust="spacing" textLength="33" x="713.25" y="62.6592">login</text><line style="stroke:#000000;stroke-width:1.0;" x1="615" x2="817" y1="70.5986" y2="70.5986"/><text fill="#000000" font-family="Verdana" font-size="14" lengthAdjust="spacing" textLength="192" x="620" y="88.6738">&#171;Referenced by login.html&#187;</text><line style="stroke:#000000;stroke-width:1.0;" x1="615" x2="817" y1="95.6133" y2="95.6133"/></g><!--class register--><g id="elem_register"><rect codeLine="75" fill="#FFFFFF" height="74.6133" id="register" rx="2.5" ry="2.5" style="stroke:#000000;stroke-width:1.0;" width="225" x="900.5" y="29"/><ellipse cx="982.25" cy="49.7993" fill="#FFFFFF" rx="9" ry="9" style="stroke:#000000;stroke-width:1.0;"/><path d="M985.0156,45.6743 Q985.1719,45.4556 985.3594,45.3462 Q985.5469,45.2368 985.7656,45.2368 Q986.1406,45.2368 986.375,45.5024 Q986.6094,45.7524 986.6094,46.3618 L986.6094,47.8149 Q986.6094,48.4243 986.375,48.6899 Q986.1406,48.9556 985.7656,48.9556 Q985.4219,48.9556 985.2188,48.7524 Q985.0156,48.5649 984.9063,48.0493 Q984.8594,47.6899 984.6719,47.5024 Q984.3438,47.1274 983.7344,46.9087 Q983.125,46.6899 982.5,46.6899 Q981.7344,46.6899 981.0938,47.0181 Q980.4688,47.3462 979.9688,48.0962 Q979.4844,48.8462 979.4844,49.8774 L979.4844,50.9712 Q979.4844,52.2056 980.375,53.0337 Q981.2656,53.8462 982.8594,53.8462 Q983.7969,53.8462 984.4531,53.5962 Q984.8438,53.4399 985.2656,53.0024 Q985.5313,52.7368 985.6719,52.6587 Q985.8281,52.5806 986.0313,52.5806 Q986.3594,52.5806 986.6094,52.8462 Q986.875,53.0962 986.875,53.4399 Q986.875,53.7837 986.5313,54.1899 Q986.0313,54.7681 985.2344,55.0962 Q984.1563,55.5493 982.8594,55.5493 Q981.3438,55.5493 980.1406,54.9243 Q979.1563,54.4243 978.4688,53.3618 Q977.7813,52.2837 977.7813,51.0024 L977.7813,49.8462 Q977.7813,48.5181 978.3906,47.3774 Q979.0156,46.2212 980.1094,45.6118 Q981.2031,44.9868 982.4375,44.9868 Q983.1719,44.9868 983.8125,45.1587 Q984.4688,45.3149 985.0156,45.6743 Z " fill="#000000"/><text fill="#000000" font-family="Verdana" font-size="12" font-style="italic" lengthAdjust="spacing" textLength="50" x="1001.75" y="46.0645">&#171;views&#187;</text><text fill="#000000" font-family="Verdana" font-size="14" lengthAdjust="spacing" textLength="54" x="999.75" y="62.6592">register</text><line style="stroke:#000000;stroke-width:1.0;" x1="901.5" x2="1124.5" y1="70.5986" y2="70.5986"/><text fill="#000000" font-family="Verdana" font-size="14" lengthAdjust="spacing" textLength="213" x="906.5" y="88.6738">&#171;Referenced by register.html&#187;</text><line style="stroke:#000000;stroke-width:1.0;" x1="901.5" x2="1124.5" y1="95.6133" y2="95.6133"/></g><!--class User--><g id="elem_User"><rect codeLine="17" fill="#FFFFFF" height="422.9063" id="User" rx="2.5" ry="2.5" style="stroke:#000000;stroke-width:1.0;" width="706" x="535" y="333"/><ellipse cx="856.75" cy="353.7993" fill="#FFFFFF" rx="9" ry="9" style="stroke:#000000;stroke-width:1.0;"/><path d="M859.5156,349.6743 Q859.6719,349.4556 859.8594,349.3462 Q860.0469,349.2368 860.2656,349.2368 Q860.6406,349.2368 860.875,349.5024 Q861.1094,349.7524 861.1094,350.3618 L861.1094,351.8149 Q861.1094,352.4243 860.875,352.6899 Q860.6406,352.9556 860.2656,352.9556 Q859.9219,352.9556 859.7188,352.7524 Q859.5156,352.5649 859.4063,352.0493 Q859.3594,351.6899 859.1719,351.5024 Q858.8438,351.1274 858.2344,350.9087 Q857.625,350.6899 857,350.6899 Q856.2344,350.6899 855.5938,351.0181 Q854.9688,351.3462 854.4688,352.0962 Q853.9844,352.8462 853.9844,353.8774 L853.9844,354.9712 Q853.9844,356.2056 854.875,357.0337 Q855.7656,357.8462 857.3594,357.8462 Q858.2969,357.8462 858.9531,357.5962 Q859.3438,357.4399 859.7656,357.0024 Q860.0313,356.7368 860.1719,356.6587 Q860.3281,356.5806 860.5313,356.5806 Q860.8594,356.5806 861.1094,356.8462 Q861.375,357.0962 861.375,357.4399 Q861.375,357.7837 861.0313,358.1899 Q860.5313,358.7681 859.7344,359.0962 Q858.6563,359.5493 857.3594,359.5493 Q855.8438,359.5493 854.6406,358.9243 Q853.6563,358.4243 852.9688,357.3618 Q852.2813,356.2837 852.2813,355.0024 L852.2813,353.8462 Q852.2813,352.5181 852.8906,351.3774 Q853.5156,350.2212 854.6094,349.6118 Q855.7031,348.9868 856.9375,348.9868 Q857.6719,348.9868 858.3125,349.1587 Q858.9688,349.3149 859.5156,349.6743 Z " fill="#000000"/><text fill="#000000" font-family="Verdana" font-size="12" font-style="italic" lengthAdjust="spacing" textLength="59" x="872.25" y="350.0645">&#171;models&#187;</text><text fill="#000000" font-family="Verdana" font-size="14" lengthAdjust="spacing" textLength="32" x="885.75" y="366.6592">User</text><line style="stroke:#000000;stroke-width:1.0;" x1="536" x2="1240" y1="374.5986" y2="374.5986"/><text fill="#000000" font-family="Verdana" font-size="14" lengthAdjust="spacing" textLength="93" x="541" y="392.6738">-_id: number</text><text fill="#000000" font-family="Verdana" font-size="14" lengthAdjust="spacing" textLength="103" x="541" y="409.6885">-_email: string</text><text fill="#000000" font-family="Verdana" font-size="14" lengthAdjust="spacing" textLength="136" x="541" y="426.7031">-_password: string</text><text fill="#000000" font-family="Verdana" font-size="14" lengthAdjust="spacing" textLength="137" x="541" y="443.7178">-_username: string</text><line style="stroke:#000000;stroke-width:1.0;" x1="536" x2="1240" y1="450.6572" y2="450.6572"/><text fill="#000000" font-family="Verdana" font-size="14" lengthAdjust="spacing" textLength="540" x="541" y="468.7324">+constructor(id: number, email: string, password: string, username: string)</text><text fill="#000000" font-family="Verdana" font-size="14" lengthAdjust="spacing" text-decoration="underline" textLength="551" x="541" y="506.7617">+async doesUserExistsForEmail(email: string): Promise&lt;boolean | undefined&gt;</text><text fill="#000000" font-family="Verdana" font-size="14" lengthAdjust="spacing" text-decoration="underline" textLength="619" x="541" y="523.7764">+async doesUserExistsForUsername(username: string): Promise&lt;boolean | undefined&gt;</text><text fill="#000000" font-family="Verdana" font-size="14" lengthAdjust="spacing" text-decoration="underline" textLength="437" x="541" y="540.791">+async getUserById(id: number): Promise&lt;User | undefined&gt;</text><text fill="#000000" font-family="Verdana" font-size="14" lengthAdjust="spacing" text-decoration="underline" textLength="694" x="541" y="557.8057">+async getUserByEmailAndPassword(email: string, password: string): Promise&lt;User | undefined&gt;</text><text fill="#000000" font-family="Verdana" font-size="14" lengthAdjust="spacing" textLength="254" x="541" y="574.8203">+async create(): Promise&lt;boolean&gt;</text><text fill="#000000" font-family="Verdana" font-size="14" lengthAdjust="spacing" textLength="260" x="541" y="591.835">+async update(): Promise&lt;boolean&gt;</text><text fill="#000000" font-family="Verdana" font-size="14" lengthAdjust="spacing" textLength="253" x="541" y="608.8496">+async delete(): Promise&lt;boolean&gt;</text><line style="stroke:#000000;stroke-width:1.0;stroke-dasharray:1.0,2.0;" x1="536" x2="867.5" y1="484.1792" y2="484.1792"/><text fill="#000000" font-family="Verdana" font-size="14" lengthAdjust="spacing" textLength="41" x="867.5" y="489.2471">CRUD</text><line style="stroke:#000000;stroke-width:1.0;stroke-dasharray:1.0,2.0;" x1="908.5" x2="1240" y1="484.1792" y2="484.1792"/><text fill="#000000" font-family="Verdana" font-size="14" lengthAdjust="spacing" textLength="128" x="541" y="646.8789">+get id(): number</text><text fill="#000000" font-family="Verdana" font-size="14" lengthAdjust="spacing" textLength="138" x="541" y="663.8936">+get email(): string</text><text fill="#000000" font-family="Verdana" font-size="14" lengthAdjust="spacing" textLength="172" x="541" y="680.9082">+set email(email: string)</text><text fill="#000000" font-family="Verdana" font-size="14" lengthAdjust="spacing" textLength="171" x="541" y="697.9229">+get password(): string</text><text fill="#000000" font-family="Verdana" font-size="14" lengthAdjust="spacing" textLength="238" x="541" y="714.9375">+set password(password: string)</text><text fill="#000000" font-family="Verdana" font-size="14" lengthAdjust="spacing" textLength="172" x="541" y="731.9521">+get username(): string</text><text fill="#000000" font-family="Verdana" font-size="14" lengthAdjust="spacing" textLength="240" x="541" y="748.9668">+set username(username: string)</text><line style="stroke:#000000;stroke-width:1.0;stroke-dasharray:1.0,2.0;" x1="536" x2="827.5" y1="624.2964" y2="624.2964"/><text fill="#000000" font-family="Verdana" font-size="14" lengthAdjust="spacing" textLength="121" x="827.5" y="629.3643">Getters / Setters</text><line style="stroke:#000000;stroke-width:1.0;stroke-dasharray:1.0,2.0;" x1="948.5" x2="1240" y1="624.2964" y2="624.2964"/></g><!--reverse link Controller to HomeController--><g id="link_Controller_HomeController"><path codeLine="4" d="M317.9214,129.6563 C275.9914,152.1063 244.2,169.13 206.4,189.38 " fill="none" id="Controller-backto-HomeController" style="stroke:#000000;stroke-width:1.0;"/><polygon fill="none" points="333.79,121.16,315.0893,124.3668,320.7535,134.9458,333.79,121.16" style="stroke:#000000;stroke-width:1.0;"/></g><!--reverse link Controller to LoginController--><g id="link_Controller_LoginController"><path codeLine="5" d="M548.6797,129.7471 C584.4197,149.1471 608.55,162.25 642.81,180.85 " fill="none" id="Controller-backto-LoginController" style="stroke:#000000;stroke-width:1.0;"/><polygon fill="none" points="532.86,121.16,545.8173,135.0203,551.542,124.4738,532.86,121.16" style="stroke:#000000;stroke-width:1.0;"/></g><!--reverse link Controller to RegisterController--><g id="link_Controller_RegisterController"><path codeLine="6" d="M577.2712,115.8875 C589.3712,119.5675 584.27,117.85 596,121 C721.85,154.82 756.24,150.8 883,181 C888.87,182.4 894.86,183.86 900.89,185.35 " fill="none" id="Controller-backto-RegisterController" style="stroke:#000000;stroke-width:1.0;"/><polygon fill="none" points="560.05,110.65,575.5253,121.6279,579.017,110.1471,560.05,110.65" style="stroke:#000000;stroke-width:1.0;"/></g><!--reverse link Controller to NavController--><g id="link_Controller_NavController"><path codeLine="7" d="M429.9334,139.1313 C428.6634,161.5813 428.23,169.13 427.08,189.38 " fill="none" id="Controller-backto-NavController" style="stroke:#000000;stroke-width:1.0;"/><polygon fill="none" points="430.95,121.16,423.9429,138.7924,435.9238,139.4701,430.95,121.16" style="stroke:#000000;stroke-width:1.0;"/></g><!--link index to NavController--><g id="link_index_NavController"><path codeLine="8" d="M219.59,104.06 C262.71,129.66 314.9405,160.6673 358.1005,186.2873 " fill="none" id="index-to-NavController" style="stroke:#377EB8;stroke-width:1.0;stroke-dasharray:7.0,7.0;"/><polygon fill="#377EB8" points="363.26,189.35,357.5626,181.3163,358.9605,186.7978,353.479,188.1956,363.26,189.35" style="stroke:#377EB8;stroke-width:1.0;"/></g><!--link index to HomeController--><g id="link_index_HomeController"><path codeLine="9" d="M153.36,104.26 C150.13,129.87 146.5922,157.9273 143.3622,183.4873 " fill="none" id="index-to-HomeController" style="stroke:#377EB8;stroke-width:1.0;stroke-dasharray:7.0,7.0;"/><polygon fill="#377EB8" points="142.61,189.44,147.7068,181.0125,143.2369,184.4795,139.7699,180.0095,142.61,189.44" style="stroke:#377EB8;stroke-width:1.0;"/></g><!--link login to NavController--><g id="link_login_NavController"><path codeLine="10" d="M648.87,104.06 C601.79,129.71 544.3692,160.9803 497.3092,186.6103 " fill="none" id="login-to-NavController" style="stroke:#D65F00;stroke-width:1.0;stroke-dasharray:7.0,7.0;"/><polygon fill="#D65F00" points="492.04,189.48,501.857,188.6882,496.431,187.0886,498.0307,181.6626,492.04,189.48" style="stroke:#D65F00;stroke-width:1.0;"/></g><!--link login to LoginController--><g id="link_login_LoginController"><path codeLine="11" d="M718.32,104.26 C719.76,127.12 721.2525,150.6919 722.7825,174.9619 " fill="none" id="login-to-LoginController" style="stroke:#D65F00;stroke-width:1.0;stroke-dasharray:7.0,7.0;"/><polygon fill="#D65F00" points="723.16,180.95,726.5858,171.7162,722.8454,175.9599,718.6017,172.2195,723.16,180.95" style="stroke:#D65F00;stroke-width:1.0;"/></g><!--link register to NavController--><g id="link_register_NavController"><path codeLine="12" d="M900.34,102.67 C878.73,109.05 856.22,115.43 835,121 C717.35,151.86 685.45,149.38 568,181 C558.32,183.6 554.0748,184.7423 544.0748,187.6923 " fill="none" id="register-to-NavController" style="stroke:#228B22;stroke-width:1.0;stroke-dasharray:7.0,7.0;"/><polygon fill="#228B22" points="538.32,189.39,548.084,190.68,543.1157,187.9753,545.8204,183.0069,538.32,189.39" style="stroke:#228B22;stroke-width:1.0;"/></g><!--link register to RegisterController--><g id="link_register_RegisterController"><path codeLine="13" d="M1021.81,104.26 C1027.29,127.12 1032.9809,150.8454 1038.8009,175.1154 " fill="none" id="register-to-RegisterController" style="stroke:#228B22;stroke-width:1.0;stroke-dasharray:7.0,7.0;"/><polygon fill="#228B22" points="1040.2,180.95,1041.991,171.2654,1039.034,176.0878,1034.2116,173.1309,1040.2,180.95" style="stroke:#228B22;stroke-width:1.0;"/></g><!--link LoginController to User--><g id="link_LoginController_User"><path codeLine="14" d="M749.21,273.2 C757.92,290.16 765.739,305.3927 777.109,327.5327 " fill="none" id="LoginController-to-User" style="stroke:#000000;stroke-width:1.0;stroke-dasharray:7.0,7.0;"/><polygon fill="#000000" points="779.85,332.87,779.2967,323.0367,777.5658,328.4222,772.1803,326.6913,779.85,332.87" style="stroke:#000000;stroke-width:1.0;"/></g><!--link RegisterController to User--><g id="link_RegisterController_User"><path codeLine="15" d="M1027.65,273.2 C1018.89,290.16 1011.0143,305.3995 999.5743,327.5395 " fill="none" id="RegisterController-to-User" style="stroke:#000000;stroke-width:1.0;stroke-dasharray:7.0,7.0;"/><polygon fill="#000000" points="996.82,332.87,1004.5051,326.7105,999.1153,328.428,997.3978,323.0381,996.82,332.87" style="stroke:#000000;stroke-width:1.0;"/></g><!--SRC=[hLNRRjf047ttLqp52n7W8ges4R8i1KAQI6aLaV9KLTNYdP1Lx5sqkqv22V_UzGrVWr5QlzWxS-RCrRCVz0C626kVC6wfHyRNH980F9yeTQwrPCjGuxKd-1txWp2qhAdWMWhVHmdEws00LoB0N5PJtuWLumVqSrmnfL4UW7mdJmKjunHVmFxP-NHwEfkS_RBTTa0bHZ-AAK9SVFbyEHpMAHe0rJna6dU46etE9gDHdQOPqv1nXHni0rieewXZSvqLzoZ-1iS914LVkIviBJ3Fu3UZO-1Xi3J8H801OVuObEafNwMojM5u5f9MnA7Xv2J0idWmYDyzCmn677fQo6xkfGyb1tseSlUXIdiIyzasJEUB2_EEZrkbYMRU3df4RRW7LA2ASfozc4geIo5daPjkoTd966wb29X2Poc4ZuJ3AuHc3kuPH-eUnxj8e-lMmdm7-mfrn3VPNDD2ZGfCSTkEfucJFkVqDYrgjwNOhPvI1vv4eh5RJx642jVq29GPG3o0Cdt-YjeCiuAFS9T-fKtlcKI1qSYsCBEnD4uqKXH6iQVsYl8Sv6PPGPeizxfQrNBxR0YQxCCt9yNQMHPPcWFnTB93eRZD76z_o7_LpXF3vp5S_VXsC_FDBkRQIkJ5_wo6IKBTPivsq95eEYoZU9y4ewRZMHUYenj5bWHKNePl1DLhSRvdgwwkzz75-oMP8i6dFlCUOzxYB5MoQDYC_yjrHdt0UsdF_si9amlBSI9CRkuuSxn7qrGFAImt2Sf-q87l5W99RgessnXLizrVJstc6J1d-0i0]--></g></svg>